<svg xmlns="http://www.w3.org/2000/svg" xmlns:xlink="http://www.w3.org/1999/xlink" id="Layer_1" x="0px" y="0px" width="100%" viewBox="0 0 478 111" xml:space="preserve"><path fill="#FEFEFE" opacity="1.000000" stroke="none" d="M454.000000,112.000000  C302.730682,112.000000 151.961380,112.000000 1.096031,112.000000  C1.096031,75.079948 1.096031,38.159561 1.096031,1.119587  C160.333267,1.119587 319.666626,1.119587 478.994690,1.119587  C478.994690,38.038486 478.994690,75.019241 478.992035,112.000000  C470.826263,112.000000 462.663116,112.000000 454.000000,112.000000 M94.560097,55.269783  C95.874100,57.557156 97.483322,59.728508 98.437759,62.157185  C100.172592,66.571663 102.931450,68.195000 107.476532,66.495979  C102.686241,54.061337 102.265419,53.678268 93.503761,54.062958  C93.332954,54.049938 93.162148,54.036922 92.899956,53.483749  C92.875526,53.302776 92.851105,53.121807 93.346039,52.507889  C96.286125,46.983250 101.147957,44.775841 107.261116,45.094830  C107.261116,42.781979 107.261116,41.049141 107.261116,39.375336  C102.423782,38.102345 99.264641,40.069035 96.831749,43.657589  C95.191635,46.076778 93.612938,48.537601 92.068779,50.057369  C92.068779,46.464874 92.068779,42.872379 92.068779,38.971333  C89.635345,39.089085 87.915306,39.172310 86.247391,39.253017  C86.247391,48.719910 86.247391,57.638615 86.247391,66.678940  C88.244835,66.678940 89.966248,66.678940 91.576195,66.678940  C92.072327,62.503147 92.530594,58.646130 93.489799,54.914230  C93.660629,54.894955 93.831451,54.875675 94.560097,55.269783 M434.859711,65.895248  C434.859711,64.261375 434.859711,62.627510 434.859711,60.918301  C431.723938,61.573128 431.334106,61.378784 423.073303,55.266525  C423.756348,55.027195 424.326477,54.787651 424.917969,54.626610  C428.867462,53.551304 432.459747,51.774673 431.826721,46.995445  C431.207367,42.319454 427.224213,41.201370 423.234375,41.080711  C416.795685,40.886005 410.346832,41.028381 403.756775,41.028381  C403.756775,49.774834 403.756775,58.256466 403.756775,66.688797  C406.007507,66.688797 408.062775,66.688797 410.203918,66.688797  C410.203918,63.283970 410.203918,60.209827 410.203918,57.109974  C415.023682,56.718006 419.389862,56.221470 422.280945,61.125908  C426.406891,68.125214 427.216309,68.328270 435.715851,66.923897  C438.190399,66.424606 441.674286,68.876282 442.907166,64.786591  C443.923798,61.414276 446.014954,60.565750 449.257965,60.887474  C451.887421,61.148327 454.584686,60.743515 457.209290,61.027489  C458.447968,61.161507 460.390900,61.997265 460.636932,62.893337  C461.969879,67.748451 465.232269,67.482254 469.113708,66.661949  C464.718140,58.028725 460.410706,49.568588 455.999176,40.904049  C455.277802,40.904049 454.265137,41.033508 453.296783,40.881153  C449.544891,40.290836 447.689331,41.650482 446.066864,45.372768  C442.842621,52.769932 438.653870,59.746685 434.859711,65.895248 M360.762115,56.478653  C360.762115,59.914040 360.762115,63.349426 360.762115,66.697166  C362.755615,66.697166 364.808929,66.697166 367.017242,66.697166  C367.017242,60.918621 367.017242,55.460224 367.017242,48.624123  C370.483307,54.761997 373.312653,59.602325 375.968628,64.535995  C377.719299,67.787994 379.158966,67.999748 380.995453,64.604355  C383.715942,59.574532 386.602448,54.634483 389.418304,49.656223  C389.697876,49.743393 389.977478,49.830563 390.257050,49.917732  C390.257050,55.556381 390.257050,61.195026 390.257050,66.693359  C392.664520,66.693359 394.722351,66.693359 396.635193,66.693359  C396.635193,57.936646 396.635193,49.510647 396.635193,41.295708  C391.156189,39.566833 388.210480,41.907700 386.080750,46.656082  C383.990692,51.316078 381.229645,55.675156 378.616028,60.433979  C375.860229,55.404030 372.948029,50.910877 370.864685,46.061634  C368.650238,40.907288 365.287506,39.830189 360.762177,41.264694  C360.762177,46.210724 360.762177,50.848286 360.762115,56.478653 M136.979218,59.599552  C137.794159,61.046062 138.593475,62.501633 139.426926,63.937389  C141.989929,68.352524 142.528946,68.347206 145.106430,63.841026  C147.863480,59.020901 150.596207,54.186874 153.994400,48.206451  C153.994400,55.262653 153.994400,60.953140 153.994400,66.764893  C156.332565,66.764893 158.393631,66.764893 160.391235,66.764893  C160.391235,58.116154 160.391235,49.727913 160.391235,41.354141  C153.435913,40.415462 153.424667,40.409222 150.279846,46.077518  C147.704666,50.719067 145.160446,55.377804 142.403976,60.389915  C138.758896,53.814445 135.237198,47.461533 131.714798,41.107353  C129.184952,41.107353 126.754112,41.107353 124.307098,41.107353  C124.307098,49.861645 124.307098,58.407116 124.307098,66.807022  C126.546707,66.807022 128.491837,66.807022 130.505219,66.807022  C130.505219,61.071007 130.505219,55.547653 130.505219,50.024303  C130.774780,49.915577 131.044342,49.806850 131.313889,49.698124  C133.091064,52.779057 134.868240,55.859989 136.979218,59.599552 M196.433090,59.713776  C198.767334,54.085838 198.171234,48.879917 193.725174,44.568913  C187.827301,38.850235 175.279465,38.984459 169.343689,44.632973  C163.670639,50.031479 164.401855,59.604755 170.671463,64.369286  C176.679413,68.934959 191.708008,68.952820 196.433090,59.713776 M203.144501,50.519234  C203.144501,55.955196 203.144501,61.391159 203.144501,66.828285  C205.292999,66.828285 207.242752,66.828285 209.256638,66.828285  C209.256638,63.235920 209.256638,59.828827 209.256638,56.510376  C214.595825,56.510376 219.699738,56.510376 225.148682,56.510376  C225.148682,60.145069 225.148682,63.546535 225.148682,66.785629  C227.454666,66.785629 229.404922,66.785629 231.366730,66.785629  C231.366730,58.160946 231.366730,49.772697 231.366730,41.162426  C229.263901,41.162426 227.216110,41.162426 224.932571,41.162426  C224.932571,44.657341 224.932571,47.900604 224.932571,51.184902  C219.550858,51.184902 214.470184,51.184902 209.252151,51.184902  C209.252151,47.726070 209.252151,44.494278 209.252151,41.244186  C207.051880,41.244186 205.015106,41.244186 203.144196,41.244186  C203.144196,44.231182 203.144196,46.878586 203.144501,50.519234 M298.716827,45.520477  C298.716827,44.073746 298.716827,42.627010 298.716827,41.234947  C296.493011,41.234947 294.449921,41.234947 292.517731,41.234947  C292.517731,49.963020 292.517731,58.360931 292.517731,66.712082  C294.734375,66.712082 296.790405,66.712082 298.969971,66.712082  C298.862976,64.753281 298.734955,63.111488 298.693756,61.467525  C298.648560,59.664974 298.683472,57.860420 298.683472,56.166912  C305.943634,54.045639 308.133636,55.110241 311.120117,62.240639  C312.643738,65.878250 314.908234,68.116119 319.121582,67.258698  C323.753052,66.316185 321.864197,62.838520 321.906311,61.555679  C319.165222,60.357243 316.730652,59.865528 315.121857,58.441093  C313.209961,56.748283 312.007996,54.253696 310.925049,52.713371  C318.195129,50.794277 319.866547,48.342548 317.546204,41.114594  C315.636719,41.114594 313.685760,41.114594 311.706177,41.114594  C312.909760,49.603611 309.305542,52.160332 298.648743,50.331390  C298.648743,49.082100 298.648743,47.777527 298.716827,45.520477 M354.535736,61.971169  C351.018646,55.094284 347.501526,48.217396 343.885925,41.147884  C341.379944,41.147884 338.440460,41.147884 336.221802,41.147884  C331.719940,49.970478 327.463623,58.311852 323.105896,66.851959  C325.376556,66.851959 327.481476,66.851959 329.563080,66.851959  C332.621185,60.937943 332.621185,60.937901 339.580841,60.937931  C341.405609,60.937939 343.276245,60.692688 345.039520,61.022034  C346.280823,61.253887 348.156189,62.053192 348.406677,62.966957  C349.755920,67.888519 353.157043,67.339981 357.175964,66.690933  C356.336639,65.177742 355.629364,63.902618 354.535736,61.971169 M277.193604,44.300835  C276.190491,43.171883 275.219696,41.099640 274.179077,41.063957  C266.211945,40.790779 258.231262,40.913986 250.035538,40.913986  C249.661484,42.681667 249.336212,44.218773 248.919388,46.188484  C252.923172,46.188484 256.500977,46.188484 260.179932,46.188484  C260.179932,53.296425 260.179932,60.047379 260.179932,66.713005  C262.496033,66.713005 264.580017,66.713005 266.414917,66.713005  C266.414917,59.669342 266.414917,52.928421 266.414917,46.521358  C270.275146,45.986752 273.804810,45.497932 277.193604,44.300835 M76.915245,47.531826  C73.795219,38.495201 73.795219,38.495201 67.323616,39.444366  C69.910599,47.083027 72.758934,54.646500 74.986336,62.388611  C76.317360,67.015060 78.674110,67.997803 83.106804,66.360138  C81.068138,60.228813 79.085136,54.264866 76.915245,47.531826 M66.742851,55.736755  C65.332870,51.514843 63.943932,47.285751 62.507355,43.072903  C60.871201,38.274803 59.036236,37.675541 54.640060,40.056740  C57.137836,47.463810 59.876835,54.711880 61.977642,62.140434  C63.260105,66.675278 65.476952,68.113136 70.158897,66.386719  C69.093391,63.090790 68.028526,59.796822 66.742851,55.736755 M244.219864,49.547318  C244.219864,46.772972 244.219864,43.998627 244.219864,41.197708  C242.267654,41.197708 240.220947,41.197708 238.222275,41.197708  C238.222275,49.915989 238.222275,58.329468 238.222275,66.722961  C240.481247,66.722961 242.529358,66.722961 244.219437,66.722961  C244.219437,61.118771 244.219437,55.827347 244.219864,49.547318 M53.034992,63.680107  C53.034992,58.008293 53.034992,52.336479 53.034992,46.664665  C52.686043,46.622322 52.337097,46.579979 51.988148,46.537636  C49.841553,53.161804 47.694958,59.785973 45.548363,66.410141  C46.015491,66.877289 46.482620,67.344437 46.949745,67.811577  C48.910984,66.694183 50.872219,65.576782 53.034992,63.680107 z"></path><path fill="#0D0D0D" opacity="1.000000" stroke="none" d="M360.762146,55.982250  C360.762177,50.848286 360.762177,46.210724 360.762177,41.264694  C365.287506,39.830189 368.650238,40.907288 370.864685,46.061634  C372.948029,50.910877 375.860229,55.404030 378.616028,60.433979  C381.229645,55.675156 383.990692,51.316078 386.080750,46.656082  C388.210480,41.907700 391.156189,39.566833 396.635193,41.295708  C396.635193,49.510647 396.635193,57.936646 396.635193,66.693359  C394.722351,66.693359 392.664520,66.693359 390.257050,66.693359  C390.257050,61.195026 390.257050,55.556381 390.257050,49.917732  C389.977478,49.830563 389.697876,49.743393 389.418304,49.656223  C386.602448,54.634483 383.715942,59.574532 380.995453,64.604355  C379.158966,67.999748 377.719299,67.787994 375.968628,64.535995  C373.312653,59.602325 370.483307,54.761997 367.017242,48.624123  C367.017242,55.460224 367.017242,60.918621 367.017242,66.697166  C364.808929,66.697166 362.755615,66.697166 360.762115,66.697166  C360.762115,63.349426 360.762115,59.914040 360.762146,55.982250 z"></path><path fill="#0E0E0E" opacity="1.000000" stroke="none" d="M136.812317,59.270233  C134.868240,55.859989 133.091064,52.779057 131.313889,49.698124  C131.044342,49.806850 130.774780,49.915577 130.505219,50.024303  C130.505219,55.547653 130.505219,61.071007 130.505219,66.807022  C128.491837,66.807022 126.546707,66.807022 124.307098,66.807022  C124.307098,58.407116 124.307098,49.861645 124.307098,41.107353  C126.754112,41.107353 129.184952,41.107353 131.714798,41.107353  C135.237198,47.461533 138.758896,53.814445 142.403976,60.389915  C145.160446,55.377804 147.704666,50.719067 150.279846,46.077518  C153.424667,40.409222 153.435913,40.415462 160.391235,41.354141  C160.391235,49.727913 160.391235,58.116154 160.391235,66.764893  C158.393631,66.764893 156.332565,66.764893 153.994400,66.764893  C153.994400,60.953140 153.994400,55.262653 153.994400,48.206451  C150.596207,54.186874 147.863480,59.020901 145.106430,63.841026  C142.528946,68.347206 141.989929,68.352524 139.426926,63.937389  C138.593475,62.501633 137.794159,61.046062 136.812317,59.270233 z"></path><path fill="#0B0B0B" opacity="1.000000" stroke="none" d="M434.880096,66.671829  C427.216309,68.328270 426.406891,68.125214 422.280945,61.125908  C419.389862,56.221470 415.023682,56.718006 410.203918,57.109974  C410.203918,60.209827 410.203918,63.283970 410.203918,66.688797  C408.062775,66.688797 406.007507,66.688797 403.756775,66.688797  C403.756775,58.256466 403.756775,49.774834 403.756775,41.028381  C410.346832,41.028381 416.795685,40.886005 423.234375,41.080711  C427.224213,41.201370 431.207367,42.319454 431.826721,46.995445  C432.459747,51.774673 428.867462,53.551304 424.917969,54.626610  C424.326477,54.787651 423.756348,55.027195 423.073303,55.266525  C431.334106,61.378784 431.723938,61.573128 434.859711,60.918301  C434.859711,62.627510 434.859711,64.261375 434.878662,66.337158  C434.897583,66.779076 434.880096,66.671829 434.880096,66.671829 M417.365845,45.930790  C414.927612,45.930790 412.489380,45.930790 410.093750,45.930790  C410.093750,48.401142 410.093750,50.329006 410.093750,52.714516  C412.929504,52.714516 415.561401,52.880737 418.162872,52.670410  C421.095459,52.433319 425.697418,53.606972 425.756775,49.335667  C425.818146,44.918785 421.226105,46.257713 417.365845,45.930790 z"></path><path fill="#0B0B0B" opacity="1.000000" stroke="none" d="M196.247330,60.043678  C191.708008,68.952820 176.679413,68.934959 170.671463,64.369286  C164.401855,59.604755 163.670639,50.031479 169.343689,44.632973  C175.279465,38.984459 187.827301,38.850235 193.725174,44.568913  C198.171234,48.879917 198.767334,54.085838 196.247330,60.043678 M176.869476,61.980724  C179.309586,62.203114 181.846115,62.963333 184.171616,62.546440  C190.984161,61.325146 194.082153,54.252251 190.284515,48.987320  C187.522125,45.157593 183.421341,44.476566 179.137131,45.222969  C175.300171,45.891453 172.385757,47.975555 171.588562,52.130791  C170.766785,56.414303 172.437469,59.547562 176.869476,61.980724 z"></path><path fill="#0C0C0C" opacity="1.000000" stroke="none" d="M203.144348,50.022614  C203.144196,46.878586 203.144196,44.231182 203.144196,41.244186  C205.015106,41.244186 207.051880,41.244186 209.252151,41.244186  C209.252151,44.494278 209.252151,47.726070 209.252151,51.184902  C214.470184,51.184902 219.550858,51.184902 224.932571,51.184902  C224.932571,47.900604 224.932571,44.657341 224.932571,41.162426  C227.216110,41.162426 229.263901,41.162426 231.366730,41.162426  C231.366730,49.772697 231.366730,58.160946 231.366730,66.785629  C229.404922,66.785629 227.454666,66.785629 225.148682,66.785629  C225.148682,63.546535 225.148682,60.145069 225.148682,56.510376  C219.699738,56.510376 214.595825,56.510376 209.256638,56.510376  C209.256638,59.828827 209.256638,63.235920 209.256638,66.828285  C207.242752,66.828285 205.292999,66.828285 203.144501,66.828285  C203.144501,61.391159 203.144501,55.955196 203.144348,50.022614 z"></path><path fill="#0C0C0C" opacity="1.000000" stroke="none" d="M298.682800,45.996716  C298.648743,47.777527 298.648743,49.082100 298.648743,50.331390  C309.305542,52.160332 312.909760,49.603611 311.706177,41.114594  C313.685760,41.114594 315.636719,41.114594 317.546204,41.114594  C319.866547,48.342548 318.195129,50.794277 310.925049,52.713371  C312.007996,54.253696 313.209961,56.748283 315.121857,58.441093  C316.730652,59.865528 319.165222,60.357243 321.906311,61.555679  C321.864197,62.838520 323.753052,66.316185 319.121582,67.258698  C314.908234,68.116119 312.643738,65.878250 311.120117,62.240639  C308.133636,55.110241 305.943634,54.045639 298.683472,56.166912  C298.683472,57.860420 298.648560,59.664974 298.693756,61.467525  C298.734955,63.111488 298.862976,64.753281 298.969971,66.712082  C296.790405,66.712082 294.734375,66.712082 292.517731,66.712082  C292.517731,58.360931 292.517731,49.963020 292.517731,41.234947  C294.449921,41.234947 296.493011,41.234947 298.716827,41.234947  C298.716827,42.627010 298.716827,44.073746 298.682800,45.996716 z"></path><path fill="#0D0D0D" opacity="1.000000" stroke="none" d="M435.297974,66.797867  C434.880096,66.671829 434.897583,66.779076 434.880615,66.838112  C438.653870,59.746685 442.842621,52.769932 446.066864,45.372768  C447.689331,41.650482 449.544891,40.290836 453.296783,40.881153  C454.265137,41.033508 455.277802,40.904049 455.999176,40.904049  C460.410706,49.568588 464.718140,58.028725 469.113708,66.661949  C465.232269,67.482254 461.969879,67.748451 460.636932,62.893337  C460.390900,61.997265 458.447968,61.161507 457.209290,61.027489  C454.584686,60.743515 451.887421,61.148327 449.257965,60.887474  C446.014954,60.565750 443.923798,61.414276 442.907166,64.786591  C441.674286,68.876282 438.190399,66.424606 435.297974,66.797867 M451.521057,56.409519  C453.269440,56.409519 455.017822,56.409519 457.338867,56.409519  C455.500214,52.553280 454.004181,49.415627 452.253265,45.743389  C450.547272,49.482170 449.093323,52.668652 447.477264,56.210369  C448.990112,56.305855 449.806305,56.357368 451.521057,56.409519 z"></path><path fill="#0C0C0C" opacity="1.000000" stroke="none" d="M354.728943,62.299332  C355.629364,63.902618 356.336639,65.177742 357.175964,66.690933  C353.157043,67.339981 349.755920,67.888519 348.406677,62.966957  C348.156189,62.053192 346.280823,61.253887 345.039520,61.022034  C343.276245,60.692688 341.405609,60.937939 339.580841,60.937931  C332.621185,60.937901 332.621185,60.937943 329.563080,66.851959  C327.481476,66.851959 325.376556,66.851959 323.105896,66.851959  C327.463623,58.311852 331.719940,49.970478 336.221802,41.147884  C338.440460,41.147884 341.379944,41.147884 343.885925,41.147884  C347.501526,48.217396 351.018646,55.094284 354.728943,62.299332 M341.893585,49.719452  C341.370453,48.610996 340.847351,47.502541 339.999084,45.705135  C338.226135,49.604889 336.795593,52.751534 335.271423,56.104065  C338.826508,56.104065 341.715393,56.104065 345.091644,56.104065  C343.953247,53.903988 343.050934,52.160225 341.893585,49.719452 z"></path><path fill="#090909" opacity="1.000000" stroke="none" d="M277.264038,44.654972  C273.804810,45.497932 270.275146,45.986752 266.414917,46.521358  C266.414917,52.928421 266.414917,59.669342 266.414917,66.713005  C264.580017,66.713005 262.496033,66.713005 260.179932,66.713005  C260.179932,60.047379 260.179932,53.296425 260.179932,46.188484  C256.500977,46.188484 252.923172,46.188484 248.919388,46.188484  C249.336212,44.218773 249.661484,42.681667 250.035538,40.913986  C258.231262,40.913986 266.211945,40.790779 274.179077,41.063957  C275.219696,41.099640 276.190491,43.171883 277.264038,44.654972 z"></path><path fill="#3EB8FF" opacity="1.000000" stroke="none" d="M77.008682,47.916374  C79.085136,54.264866 81.068138,60.228813 83.106804,66.360138  C78.674110,67.997803 76.317360,67.015060 74.986336,62.388611  C72.758934,54.646500 69.910599,47.083027 67.317955,39.446190  C73.795219,38.495201 73.795219,38.495201 77.008682,47.916374 z"></path><path fill="#41B9FF" opacity="1.000000" stroke="none" d="M66.853256,56.119804  C68.028526,59.796822 69.093391,63.090790 70.158897,66.386719  C65.476952,68.113136 63.260105,66.675278 61.977642,62.140434  C59.876835,54.711880 57.137836,47.463810 54.640060,40.056740  C59.036236,37.675541 60.871201,38.274803 62.507355,43.072903  C63.943932,47.285751 65.332870,51.514843 66.853256,56.119804 z"></path><path fill="#111111" opacity="1.000000" stroke="none" d="M244.219650,50.041618  C244.219437,55.827347 244.219437,61.118771 244.219437,66.722961  C242.529358,66.722961 240.481247,66.722961 238.222275,66.722961  C238.222275,58.329468 238.222275,49.915989 238.222275,41.197708  C240.220947,41.197708 242.267654,41.197708 244.219864,41.197708  C244.219864,43.998627 244.219864,46.772972 244.219650,50.041618 z"></path><path fill="#38B6FF" opacity="1.000000" stroke="none" d="M92.826691,52.940838  C92.851105,53.121807 92.875526,53.302776 92.945084,53.945065  C92.990204,54.406380 92.988861,54.789112 92.988861,54.789112  C92.530594,58.646130 92.072327,62.503147 91.576195,66.678940  C89.966248,66.678940 88.244835,66.678940 86.247391,66.678940  C86.247391,57.638615 86.247391,48.719910 86.247391,39.253017  C87.915306,39.172310 89.635345,39.089085 92.068779,38.971333  C92.068779,42.872379 92.068779,46.464874 92.042435,50.801151  C92.286285,52.010235 92.556488,52.475536 92.826691,52.940838 z"></path><path fill="#43BAFF" opacity="1.000000" stroke="none" d="M52.934223,64.069748  C50.872219,65.576782 48.910984,66.694183 46.949745,67.811577  C46.482620,67.344437 46.015491,66.877289 45.548363,66.410141  C47.694958,59.785973 49.841553,53.161804 51.988148,46.537636  C52.337097,46.579979 52.686043,46.622322 53.034992,46.664665  C53.034992,52.336479 53.034992,58.008293 52.934223,64.069748 z"></path><path fill="#3EB8FF" opacity="1.000000" stroke="none" d="M94.002686,54.186115  C102.265419,53.678268 102.686241,54.061337 107.476532,66.495979  C102.931450,68.195000 100.172592,66.571663 98.437759,62.157185  C97.483322,59.728508 95.874100,57.557156 94.280853,54.895870  C94.001617,54.521957 94.002686,54.186115 94.002686,54.186115 z"></path><path fill="#40B9FF" opacity="1.000000" stroke="none" d="M93.086365,52.724365  C92.556488,52.475536 92.286285,52.010235 92.011421,51.262367  C93.612938,48.537601 95.191635,46.076778 96.831749,43.657589  C99.264641,40.069035 102.423782,38.102345 107.261116,39.375336  C107.261116,41.049141 107.261116,42.781979 107.261116,45.094830  C101.147957,44.775841 96.286125,46.983250 93.086365,52.724365 z"></path><path fill="#40B9FF" opacity="1.000000" stroke="none" d="M93.753220,54.124535  C94.002686,54.186115 94.001617,54.521957 94.001953,54.689178  C93.831451,54.875675 93.660629,54.894955 93.239334,54.851669  C92.988861,54.789112 92.990204,54.406380 92.990776,54.215141  C93.162148,54.036922 93.332954,54.049938 93.753220,54.124535 z"></path><path fill="#F2F2F2" opacity="1.000000" stroke="none" d="M417.829773,45.930897  C421.226105,46.257713 425.818146,44.918785 425.756775,49.335667  C425.697418,53.606972 421.095459,52.433319 418.162872,52.670410  C415.561401,52.880737 412.929504,52.714516 410.093750,52.714516  C410.093750,50.329006 410.093750,48.401142 410.093750,45.930790  C412.489380,45.930790 414.927612,45.930790 417.829773,45.930897 z"></path><path fill="#F7F7F7" opacity="1.000000" stroke="none" d="M176.502502,61.840714  C172.437469,59.547562 170.766785,56.414303 171.588562,52.130791  C172.385757,47.975555 175.300171,45.891453 179.137131,45.222969  C183.421341,44.476566 187.522125,45.157593 190.284515,48.987320  C194.082153,54.252251 190.984161,61.325146 184.171616,62.546440  C181.846115,62.963333 179.309586,62.203114 176.502502,61.840714 z"></path><path fill="#F2F2F2" opacity="1.000000" stroke="none" d="M451.071777,56.409203  C449.806305,56.357368 448.990112,56.305855 447.477264,56.210369  C449.093323,52.668652 450.547272,49.482170 452.253265,45.743389  C454.004181,49.415627 455.500214,52.553280 457.338867,56.409519  C455.017822,56.409519 453.269440,56.409519 451.071777,56.409203 z"></path><path fill="#EEEEEE" opacity="1.000000" stroke="none" d="M342.021118,50.067959  C343.050934,52.160225 343.953247,53.903988 345.091644,56.104065  C341.715393,56.104065 338.826508,56.104065 335.271423,56.104065  C336.795593,52.751534 338.226135,49.604889 339.999084,45.705135  C340.847351,47.502541 341.370453,48.610996 342.021118,50.067959 z"></path></svg>